HIERARCHY
ROOT RootJoint
{
    OFFSET   0.000000   0.000000   0.000000
    CHANNELS 6 Xposition Yposition Zposition Xrotation Yrotation Zrotation
    JOINT pelvis_lowerback
    {
        OFFSET   0.000000   0.093605   0.000000
        CHANNELS 3 Xrotation Yrotation Zrotation
        JOINT lowerback_torso
        {
            OFFSET   0.000000   0.100000   0.000000
            CHANNELS 3 Xrotation Yrotation Zrotation
            JOINT torso_head
            {
                OFFSET   0.000000   0.282350   0.000000
                CHANNELS 3 Xrotation Yrotation Zrotation
                End Site
                {
                    OFFSET   0.000000   0.192650   0.000000
                }
            }
            JOINT rTorso_Clavicle
            {
                OFFSET  -0.001000   0.157500   0.000000
                CHANNELS 3 Xrotation Yrotation Zrotation
                JOINT rShoulder
                {
                    OFFSET  -0.117647   0.000000   0.000000
                    CHANNELS 3 Xrotation Yrotation Zrotation
                    JOINT rElbow
                    {
                        OFFSET  -0.245000   0.000000   0.000000
                        CHANNELS 3 Xrotation Yrotation Zrotation
                        JOINT rWrist
                        {
                            OFFSET  -0.240000   0.000000   0.000000
                            CHANNELS 3 Xrotation Yrotation Zrotation
                            End Site
                            {
                                OFFSET  -0.116353  -0.002500   0.000000
                            }
                        }
                    }
                }
            }
            JOINT lTorso_Clavicle
            {
                OFFSET   0.001000   0.157500   0.000000
                CHANNELS 3 Xrotation Yrotation Zrotation
                JOINT lShoulder
                {
                    OFFSET   0.117647   0.000000   0.000000
                    CHANNELS 3 Xrotation Yrotation Zrotation
                    JOINT lElbow
                    {
                        OFFSET   0.245000   0.000000   0.000000
                        CHANNELS 3 Xrotation Yrotation Zrotation
                        JOINT lWrist
                        {
                            OFFSET   0.240000   0.000000   0.000000
                            CHANNELS 3 Xrotation Yrotation Zrotation
                            End Site
                            {
                                OFFSET   0.116353  -0.002500   0.000000
                            }
                        }
                    }
                }
            }
        }
    }
    JOINT rHip
    {
        OFFSET  -0.100000  -0.051395   0.000000
        CHANNELS 3 Xrotation Yrotation Zrotation
        JOINT rKnee
        {
            OFFSET   0.000000  -0.410000   0.000000
            CHANNELS 3 Xrotation Yrotation Zrotation
            JOINT rAnkle
            {
                OFFSET   0.000000  -0.390000   0.000000
                CHANNELS 3 Xrotation Yrotation Zrotation
                JOINT rToeJoint
                {
                    OFFSET   0.000000  -0.050000   0.130000
                    CHANNELS 3 Xrotation Yrotation Zrotation
                    End Site
                    {
                        OFFSET  -0.010000   0.002000   0.060000
                    }
                }
            }
        }
    }
    JOINT lHip
    {
        OFFSET   0.100000  -0.051395   0.000000
        CHANNELS 3 Xrotation Yrotation Zrotation
        JOINT lKnee
        {
            OFFSET   0.000000  -0.410000   0.000000
            CHANNELS 3 Xrotation Yrotation Zrotation
            JOINT lAnkle
            {
                OFFSET   0.000000  -0.390000   0.000000
                CHANNELS 3 Xrotation Yrotation Zrotation
                JOINT lToeJoint
                {
                    OFFSET   0.000000  -0.050000   0.130000
                    CHANNELS 3 Xrotation Yrotation Zrotation
                    End Site
                    {
                        OFFSET   0.010000   0.002000   0.060000
                    }
                }
            }
        }
    }
}
MOTION
Frames: 15
Frame Time:   0.008333
 -2.389729   1.081606   4.220645   5.302183   3.237584   3.109526   6.983836   4.107943  -2.002616   4.989665  -0.472072   0.929919  -6.065415  -1.315573  -3.014119   5.748070   2.947937   9.642500  13.980021   8.122621  42.779664  -0.013501  24.331052   0.014242   4.108292  -0.893986  -2.035685   8.261436   1.541946  -8.450530  20.379932  -7.796234 -49.821302  -0.006669 -18.393321  -0.000037   0.465419  -3.482677  -2.403532 -23.745095  -8.447359  -7.201219  25.877268  -0.002705   0.001684  16.228907  -6.628419   8.587408   1.092581  -0.000362  -0.001234 -28.850971   3.698702   4.248217  30.660611  -0.000718   0.000179   8.859420  -1.138258  -7.159766   2.709732   0.000571   0.000276
 -2.390025   1.067533   4.222839   5.006797   3.354300   3.156904   7.489967   4.058795  -1.961297   4.959074  -0.353167   0.873478  -6.275753  -1.400749  -2.882957   5.641847   3.088159   9.632836  13.901304   8.231014  42.755108  -0.010832  23.942626   0.012655   4.037668  -0.923911  -1.720535   8.195336   1.655584  -8.442519  20.406805  -7.677077 -49.800400  -0.005366 -18.280056   0.000265   0.481906  -3.457367  -2.601545 -24.152253  -8.368845  -7.148082  27.303301  -0.004179   0.003853  14.064254  -7.008034   7.953965   0.976901  -0.000648  -0.001038 -29.078868   3.389021   4.178404  31.635997  -0.001237  -0.001129   7.067451  -1.028061  -6.784426   2.541709   0.001199   0.000470
 -2.390262   1.052745   4.225071   4.684131   3.454757   3.201616   7.983697   4.012268  -1.903532   4.942970  -0.231372   0.830924  -6.464499  -1.486546  -2.751306   5.501975   3.255006   9.578893  13.801139   8.346438  42.676287  -0.008364  23.587407   0.011167   3.971126  -0.935141  -1.510274   8.123619   1.749669  -8.418343  20.427385  -7.563652 -49.751704  -0.004246 -18.172573   0.000493   0.496621  -3.426530  -2.744484 -24.533427  -8.291716  -7.083719  28.765957  -0.005383   0.005602  12.033091  -7.344911   7.347050   0.796679  -0.001035  -0.000902 -29.269077   3.087771   4.095668  32.638053  -0.001581  -0.002312   5.389664  -0.934980  -6.430079   2.332108   0.001809   0.000707
 -2.390467   1.037268   4.227383   4.366553   3.551743   3.246183   8.436238   3.974811  -1.838957   4.919609  -0.109625   0.798266  -6.637553  -1.567968  -2.625587   5.351077   3.428100   9.501365  13.694386   8.461586  42.575238  -0.006240  23.261151   0.009800   3.908487  -0.922054  -1.378557   8.051867   1.831316  -8.376145  20.445094  -7.456074 -49.688113  -0.003302 -18.071847   0.000676   0.511552  -3.393251  -2.843348 -24.883574  -8.222835  -7.010576  30.153382  -0.006198   0.006890  10.134363  -7.639546   6.769768   0.634841  -0.001248  -0.000806 -29.434165   2.809072   3.999167  33.591438  -0.001714  -0.003112   3.824419  -0.858392  -6.097357   2.143276   0.002136   0.000860
 -2.390653   1.021111   4.229779   4.060541   3.650911   3.291132   8.846088   3.945720  -1.770894   4.883971   0.010003   0.773181  -6.799373  -1.644461  -2.507092   5.197480   3.600849   9.412631  13.586365   8.574283  42.464824  -0.004482  22.960351   0.008564   3.849097  -0.890696  -1.295799   7.981506   1.903597  -8.321041  20.460590  -7.354212 -49.615571  -0.002519 -17.977830   0.000822   0.526058  -3.360949  -2.909217 -25.205073  -8.161443  -6.931132  31.452974  -0.006671   0.007830   8.358728  -7.896886   6.222030   0.487467  -0.001345  -0.000745 -29.580329   2.552334   3.891378  34.486244  -0.001699  -0.003563   2.363461  -0.795827  -5.785450   1.971853   0.002270   0.000942
 -2.390828   1.004280   4.232256   3.766458   3.754956   3.336555   9.216141   3.923399  -1.701062   4.836953   0.126135   0.754451  -6.951648  -1.716130  -2.395927   5.045063   3.770408   9.320016  13.479453   8.683840  42.351826  -0.003064  22.682462   0.007461   3.792583  -0.845788  -1.243891   7.912976   1.967996  -8.257965  20.473934  -7.258305 -49.538251  -0.001882 -17.890319   0.000933   0.539898  -3.331364  -2.950728 -25.499937  -8.106695  -6.847418  32.667723  -0.006872   0.008505   6.698383  -8.121444   5.703478   0.352639  -0.001364  -0.000708 -29.710508   2.315867   3.775534  35.323735  -0.001589  -0.003735   0.999717  -0.745175  -5.493392   1.815611   0.002277   0.000967
 -2.390999   0.986778   4.234809   3.483479   3.865066   3.382559   9.550040   3.906436  -1.630619   4.780650   0.237921   0.741130  -7.095153  -1.783219  -2.291843   4.895974   3.935223   9.227923  13.374928   8.789960  42.240186  -0.001945  22.425452   0.006486   3.738702  -0.790355  -1.211832   7.846453   2.025513  -8.190723  20.485123  -7.168527 -49.459152  -0.001371 -17.809063   0.001012   0.552991  -3.305491  -2.974545 -25.770201  -8.057841  -6.761192  33.802838  -0.006863   0.008967   5.146155  -8.317236   5.213519   0.229256  -0.001330  -0.000687 -29.826681   2.097979   3.654612  36.107057  -0.001426  -0.003697  -0.273272  -0.704622  -5.220164   1.673061   0.002200   0.000949
 -2.391176   0.968301   4.236642   3.062594   3.930519   3.425153  10.257728   3.832300  -1.561434   4.632804   0.323379   0.763246  -7.293157  -1.863255  -2.185969   4.700287   4.214100   9.124756  13.017797   8.929853  41.882676  -0.000273  22.119375   0.005506   3.730615  -0.798208  -1.042053   7.705827   2.012559  -8.169300  20.217826  -6.935414 -49.332224  -0.000980 -17.773428   0.000962   0.562076  -3.051664  -3.080544 -26.264601  -7.756823  -6.644812  35.882995  -0.006758   0.014455   2.128981  -8.641872   4.295341   0.455639   0.000072  -0.000111 -30.162122   1.905875   3.576526  37.973557  -0.001360  -0.004327  -2.901489  -0.400456  -4.710007   1.604780   0.002075   0.000696
 -2.391360   0.949118   4.238352   2.613329   3.994539   3.476212  10.988008   3.739171  -1.490634   4.520533   0.389940   0.791073  -7.461407  -1.942663  -2.080974   4.453323   4.538124   8.994198  12.640899   9.093641  41.484516   0.001089  21.844679   0.004661   3.724127  -0.785603  -1.013081   7.511165   1.936772  -8.144333  19.918517  -6.751187 -49.176171  -0.000717 -17.755644   0.000832   0.564750  -2.834336  -3.095459 -26.770528  -7.457216  -6.531129  37.959169  -0.006358   0.018829  -0.702209  -8.902749   3.420036   0.573375   0.000607   0.000154 -30.470326   1.729841   3.498789  39.893793  -0.001365  -0.004618  -5.362918  -0.134843  -4.221184   1.455643   0.002305   0.000420
 -2.391557   0.929258   4.240077   2.176794   4.061942   3.533273  11.682825   3.639910  -1.420808   4.414192   0.441131   0.818714  -7.608657  -2.018285  -1.980317   4.192820   4.870676   8.852435  12.268711   9.265886  41.086570   0.002092  21.597354   0.003903   3.719556  -0.732432  -1.064278   7.292516   1.828864  -8.110069  19.610061  -6.600975 -49.008392  -0.000555 -17.751118   0.000680   0.565358  -2.681236  -3.054873 -27.274321  -7.175677  -6.418384  39.910133  -0.005768   0.021721  -3.349220  -9.106121   2.592086   0.679118   0.000931   0.000354 -30.739557   1.568497   3.421201  41.721919  -0.001437  -0.004557  -7.660665   0.093384  -3.755179   1.319655   0.002402   0.000218
 -2.391769   0.908729   4.241872   1.760628   4.135920   3.594339  12.329972   3.537627  -1.352347   4.303920   0.479084   0.845624  -7.742730  -2.089571  -1.885353   3.934028   5.197258   8.709620  11.910788   9.438484  40.702299   0.002787  21.372038   0.003225   3.716112  -0.651076  -1.155058   7.064541   1.704441  -8.069251  19.303182  -6.475240 -48.837171  -0.000462 -17.755379   0.000531   0.563846  -2.580195  -2.980342 -27.769658  -6.912638  -6.306918  41.725857  -0.005057   0.023442  -5.823945  -9.260505   1.811503   0.773952   0.001105   0.000498 -30.971539   1.419918   3.345823  43.439587  -0.001537  -0.004200  -9.806542   0.288913  -3.312398   1.195267   0.002409   0.000069
 -2.391995   0.887531   4.243761   1.364392   4.218226   3.658366  12.927756   3.433785  -1.285279   4.188618   0.505601   0.872058  -7.867149  -2.156555  -1.796293   3.684032   5.511274   8.571271  11.571141   9.607276  40.337350   0.003231  21.165058   0.002626   3.713386  -0.553660  -1.264331   6.835314   1.572000  -8.025122  19.003527  -6.368278 -48.667449  -0.000413 -17.765402   0.000395   0.560707  -2.517145  -2.884926 -28.251524  -6.667140  -6.197949  43.413997  -0.004286   0.024287  -8.136839  -9.373522   1.077591   0.859050   0.001174   0.000599 -31.168883   1.282706   3.274176  45.049691  -0.001628  -0.003617 -11.810599   0.455930  -2.892883   1.081309   0.002353  -0.000041
 -2.391855   0.867809   4.245040   1.119082   3.986957   3.482700  13.530915   3.459106  -1.013419   4.036049   0.622825   0.932316  -8.006666  -2.212819  -1.713877   3.385876   5.886911   8.475506  11.212081   9.803950  39.945242   0.003263  20.973698   0.002097   3.713060  -0.457190  -1.491702   6.574033   1.413897  -8.159891  18.675832  -6.313377 -48.573398  -0.000385 -17.783284   0.000295   0.552637  -2.475268  -2.782023 -28.723317  -6.626559  -5.783120  46.315630  -0.008807   0.021261 -11.844320  -9.674570  -0.217224 -15.025551  -0.110982   0.025154 -31.360659   1.118565   3.425175  46.445346  -0.002168  -0.005921 -13.678170   0.601933  -2.490210   1.010880   0.002129   0.000058
 -2.391894   0.851808   4.244022   0.874951   3.292040   2.643854  14.593433   3.661234  -0.345806   3.829947   0.859529   1.168845  -8.217258  -2.218866  -1.531679   3.031411   6.529742   8.439010  10.531828  10.183634  39.406980   0.003067  20.796455   0.001744   3.735515  -0.460001  -1.760533   6.275376   1.001351  -8.529938  18.098584  -6.434819 -48.488545  -0.000241 -17.742589   0.000038   0.536123  -2.329007  -2.841997 -30.165142  -6.476209  -4.815349  50.270565  -0.012716   0.015533 -16.948352  -9.536911  -0.880336 -13.686264  -0.088250   0.022999 -31.835909   0.813539   4.227774  48.841788  -0.003798  -0.014654 -16.130069   0.997337  -1.840271   1.181198   0.000821  -0.000123
 -2.391928   0.838003   4.242754   0.567793   2.651939   1.860013  15.655701   3.753440   0.107789   3.737038   1.027833   1.432973  -8.359944  -2.232473  -1.330966   2.648255   7.202652   8.480094   9.844158  10.620519  38.974355   0.002696  20.672674   0.001380   3.764780  -0.290366  -1.965358   5.932050   0.533022  -8.804797  17.511909  -6.593619 -48.359629  -0.000170 -17.729604  -0.000058   0.526236  -2.276968  -2.937468 -31.497885  -6.471642  -3.971023  53.780798  -0.016086   0.008986 -20.396378  -9.305820  -1.330452 -12.508158  -0.069954   0.020302 -32.189076   0.528351   4.821443  51.326365  -0.003350  -0.023347 -18.425076   1.341081  -1.217690   1.271139   0.000316  -0.000235
